<svg width="88" height="30" viewBox="0 0 88 30" fill="none" xmlns="http://www.w3.org/2000/svg">
<path d="M7.18013 6.98194H1.22903V2.77365H18.0473V6.98194H12.4197V7.52391C12.4197 8.62912 12.5383 9.76621 12.7754 10.9352C13.0342 12.0829 13.4331 13.2094 13.9721 14.3146C14.5327 15.4198 15.2659 16.4293 16.1715 17.3433C17.0986 18.2359 18.2198 18.9798 19.5351 19.5749L16.6889 23.6238C15.1796 22.9649 13.8967 22.0723 12.8401 20.9458C11.7836 19.7981 10.9211 18.5016 10.2527 17.0563C10.1244 16.7788 10.0024 16.4982 9.88678 16.2145C9.72258 16.6742 9.54269 17.1249 9.3471 17.5664C8.70024 19.0755 7.83777 20.4251 6.75967 21.6153C5.70313 22.7843 4.4202 23.7088 2.91086 24.3889L0 20.3401C1.33684 19.7237 2.45806 18.9373 3.36366 17.9809C4.29083 17.0244 5.03471 15.9724 5.59532 14.8247C6.15593 13.6557 6.55483 12.4548 6.79201 11.2221C7.05075 9.96812 7.18013 8.73539 7.18013 7.52391V6.98194ZM24.7747 11.0627V0.0318806H19.5351V19.5749V29.9362H24.7747V15.271H28.8499V11.0627H24.7747Z" fill="white"/>
<path d="M74.2543 17.6621C76.3458 17.6621 78.1678 17.9171 79.7202 18.4272C81.2942 18.916 82.5125 19.6281 83.375 20.5632C84.259 21.4772 84.701 22.5717 84.701 23.847C84.701 25.101 84.259 26.1849 83.375 27.0988C82.5125 28.034 81.2942 28.746 79.7202 29.2349C78.1678 29.745 76.3458 30 74.2543 30C72.1412 30 70.2869 29.745 68.6913 29.2349C67.1173 28.746 65.8882 28.034 65.0042 27.0988C64.1417 26.1849 63.7105 25.101 63.7105 23.847C63.7105 22.5717 64.1417 21.4772 65.0042 20.5632C65.8882 19.6281 67.1173 18.916 68.6913 18.4272C70.2869 17.9171 72.1412 17.6621 74.2543 17.6621ZM74.2219 21.7109C73.0791 21.7109 72.1089 21.7853 71.3111 21.9341C70.5133 22.0616 69.9095 22.2848 69.4999 22.6036C69.1117 22.9224 68.9177 23.3369 68.9177 23.847C68.9177 24.3358 69.1117 24.7396 69.4999 25.0584C69.9095 25.3773 70.5133 25.611 71.3111 25.7598C72.1089 25.9086 73.0791 25.983 74.2219 25.983C75.3863 25.983 76.3566 25.9086 77.1328 25.7598C77.9306 25.611 78.5235 25.3773 78.9117 25.0584C79.3213 24.7396 79.5262 24.3358 79.5262 23.847C79.5262 23.3369 79.3213 22.9224 78.9117 22.6036C78.5235 22.2848 77.9306 22.0616 77.1328 21.9341C76.3566 21.7853 75.3863 21.7109 74.2219 21.7109Z" fill="white"/>
<path fill-rule="evenodd" clip-rule="evenodd" d="M36.4479 6.7229H41.17L46.3449 2.26355V23.1456H31.2731V2.26355L36.4479 6.7229ZM36.4479 19.0648V13.1668H41.17V19.0648H36.4479Z" fill="white"/>
<path fill-rule="evenodd" clip-rule="evenodd" d="M54.5276 0.0318806H49.2881V29.9362H54.5276V15.0159H58.6028V10.8077H54.5276V0.0318806Z" fill="white"/>
<path d="M84.3453 9.78746V7.55579H88V3.37938H84.3453V0H79.138V17.2795H84.3453V13.9639H88V9.78746H84.3453Z" fill="white"/>
<path d="M61.3494 1.62593H66.5567V11.7565C67.771 11.7202 69.0216 11.659 70.3084 11.5728C72.5293 11.4028 74.8041 11.1052 77.1328 10.6801L77.715 14.7609C75.3 15.2497 72.9282 15.5792 70.5995 15.7492C68.2708 15.898 66.0607 15.9724 63.9692 15.9724H61.3494V14.0276V11.796V1.62593Z" fill="white"/>
</svg>
