<svg width="350" height="120" viewBox="0 0 350 120" fill="none" xmlns="http://www.w3.org/2000/svg">
<path d="M28.5573 27.9277H4.88819V11.0946H71.7792V27.9277H49.3964V30.0956C49.3964 34.5165 49.8681 39.0648 50.8114 43.7407C51.8405 48.3316 53.4271 52.8374 55.571 57.2582C57.8007 61.6791 60.7165 65.7173 64.3183 69.373C68.0059 72.9437 72.4653 75.9192 77.6965 78.2997L66.3765 94.4952C60.3734 91.8597 55.2708 88.2891 51.0687 83.7832C46.8666 79.1924 43.4363 74.0064 40.7778 68.2253C40.2674 67.1153 39.7822 65.9929 39.3224 64.8579C38.6693 66.6969 37.9539 68.4995 37.176 70.2657C34.6032 76.3018 31.1729 81.7003 26.885 86.4612C22.6829 91.1371 17.5803 94.8353 11.5773 97.5558L0 81.3603C5.31698 78.8948 9.77638 75.7492 13.3782 71.9235C17.0658 68.0978 20.0244 63.8895 22.2541 59.2986C24.4838 54.6227 26.0703 49.8193 27.0137 44.8884C28.0428 39.8725 28.5573 34.9416 28.5573 30.0956V27.9277ZM98.5356 44.2508V0.127522H77.6965V78.2997V119.745H98.5356V61.084H114.744V44.2508H98.5356Z" fill="black"/>
<path d="M295.329 70.6482C303.648 70.6482 310.894 71.6684 317.069 73.7088C323.329 75.6642 328.175 78.5122 331.605 82.2529C335.121 85.9086 336.879 90.2869 336.879 95.3879C336.879 100.404 335.121 104.74 331.605 108.395C328.175 112.136 323.329 114.984 317.069 116.939C310.894 118.98 303.648 120 295.329 120C286.925 120 279.55 118.98 273.204 116.939C266.944 114.984 262.055 112.136 258.539 108.395C255.109 104.74 253.394 100.404 253.394 95.3879C253.394 90.2869 255.109 85.9086 258.539 82.2529C262.055 78.5122 266.944 75.6642 273.204 73.7088C279.55 71.6684 286.925 70.6482 295.329 70.6482ZM295.201 86.8438C290.656 86.8438 286.797 87.1413 283.624 87.7365C280.451 88.2465 278.049 89.1392 276.42 90.4145C274.876 91.6897 274.104 93.3475 274.104 95.3879C274.104 97.3433 274.876 98.9585 276.42 100.234C278.049 101.509 280.451 102.444 283.624 103.039C286.797 103.634 290.656 103.932 295.201 103.932C299.832 103.932 303.691 103.634 306.778 103.039C309.951 102.444 312.31 101.509 313.853 100.234C315.483 98.9585 316.297 97.3433 316.297 95.3879C316.297 93.3475 315.483 91.6897 313.853 90.4145C312.31 89.1392 309.951 88.2465 306.778 87.7365C303.691 87.1413 299.832 86.8438 295.201 86.8438Z" fill="black"/>
<path fill-rule="evenodd" clip-rule="evenodd" d="M144.963 26.8916H163.744L184.326 9.05419V92.5824H124.382V9.05419L144.963 26.8916ZM144.963 76.2593V52.6674H163.744V76.2593H144.963Z" fill="black"/>
<path fill-rule="evenodd" clip-rule="evenodd" d="M216.871 0.127522H196.032V119.745H216.871V60.0638H233.079V43.2306H216.871V0.127522Z" fill="black"/>
<path d="M335.464 39.1498V30.2232H350V13.5175H335.464V0H314.754V69.118H335.464V55.8555H350V39.1498H335.464Z" fill="black"/>
<path d="M244.003 6.50372H264.714V47.0259C269.544 46.8809 274.518 46.636 279.636 46.2912C288.469 45.611 297.516 44.4208 306.778 42.7205L309.094 59.0436C299.489 60.9989 290.055 62.3167 280.794 62.9968C271.532 63.5919 262.742 63.8895 254.423 63.8895H244.003V56.1105V47.1838V6.50372Z" fill="black"/>
</svg>
